# xmcd
#
# Track frame offsets:
#	150
#	21235
#	36199
#	62753
#	108804
#	124672
#	136375
#	152623
#	171796
#	200260
#	220119
#	286563
#	312404
#
# Disc length: 4464 seconds
# Revision: 0
# Processed by: cddbd v1.5.2PL0 Copyright (c) Steve Scherf et al.
# Submitted via: dBpowerAMP V12.0
#
DISCID=ad116e0d
DTITLE=New Roders of the Purple Sage - 3-17-73 S.U.N.Y. Stonybrook - Stonybrook, NY, Disc 2
DYEAR=1973
DGENRE=Country
TTITLE0=Henry
TTITLE1=Crazy Arms
TTITLE2=Glendale Train
TTITLE3=All I Ever Wanted
TTITLE4=Whiskey
TTITLE5=Who Likes Louie Louie?
TTITLE6=California Day
TTITLE7=Louisiana Lady
TTITLE8=Last Lonely Eagle
TTITLE9=Dim Lights, Thick Smoke and Loud, Loud Music
TTITLE10=Willie and the Hand Jive
TTITLE11=Connection
TTITLE12=Honky Tonk Women
EXTD=
EXTT0=
EXTT1=
EXTT2=
EXTT3=
EXTT4=
EXTT5=
EXTT6=
EXTT7=
EXTT8=
EXTT9=
EXTT10=
EXTT11=
EXTT12=
PLAYORDER=
